<?xml version="1.0" standalone="no"?>
<!DOCTYPE svg PUBLIC "-//W3C//DTD SVG 20010904//EN"
 "http://www.w3.org/TR/2001/REC-SVG-20010904/DTD/svg10.dtd">
<svg version="1.0" xmlns="http://www.w3.org/2000/svg"
 width="1200.000000pt" height="1200.000000pt" viewBox="0 0 1200.000000 1200.000000"
 preserveAspectRatio="xMidYMid meet">
<metadata>
Created by potrace 1.11, written by Peter Selinger 2001-2013
</metadata>
<g transform="translate(0.000000,1200.000000) scale(0.100000,-0.100000)"
fill="#000000" stroke="none">
<path d="M1632 8534 c-32 -25 -40 -26 -97 -8 -42 14 -112 23 -174 24 -151 0
-284 -53 -386 -155 -83 -82 -126 -162 -151 -280 -7 -32 -6 -150 2 -180 4 -15
8 -35 9 -44 1 -17 16 -53 42 -110 27 -55 118 -145 180 -178 107 -57 188 -76
326 -75 97 1 155 14 255 58 43 20 52 28 52 49 0 14 1 27 1 30 13 53 24 137 19
145 -6 9 -26 -11 -93 -95 -4 -5 -23 -28 -42 -50 -19 -22 -35 -43 -35 -46 0
-19 -81 -37 -156 -35 -99 3 -191 41 -254 108 -36 37 -79 103 -77 118 0 3 -5
15 -12 28 -7 13 -14 32 -17 43 -2 10 -7 29 -10 42 -12 43 -10 213 2 280 43
224 189 339 371 291 95 -25 175 -92 243 -206 58 -97 63 -90 56 89 -2 87 -5
164 -5 171 -1 18 -12 15 -49 -14z"/>
<path d="M7695 8548 c-220 -24 -378 -172 -429 -398 -38 -169 20 -379 136 -492
60 -58 163 -111 248 -124 8 -2 16 -7 18 -13 2 -6 28 -50 58 -98 106 -169 135
-185 338 -191 158 -5 173 5 64 42 -100 33 -175 92 -257 201 -36 47 -39 65 -11
65 54 0 176 67 242 133 185 186 189 534 10 734 -92 103 -259 159 -417 141z
m149 -60 c93 -47 160 -140 195 -268 16 -61 19 -99 17 -200 -2 -69 -6 -136 -10
-149 -46 -187 -141 -296 -267 -305 -174 -13 -309 134 -334 364 -13 117 -4 256
22 340 9 30 17 58 17 61 3 21 70 111 100 134 72 55 179 64 260 23z"/>
<path d="M2245 8521 c-7 -13 4 -19 46 -26 88 -15 100 -18 107 -34 8 -17 9
-847 1 -855 -2 -3 -22 -7 -44 -10 -92 -12 -119 -21 -110 -37 7 -11 825 -13
826 -1 0 4 2 16 4 27 3 11 7 47 11 80 3 33 8 62 9 65 11 19 15 119 6 124 -6 4
-11 3 -11 -2 0 -5 -10 -20 -22 -34 -13 -13 -36 -42 -52 -64 -17 -21 -38 -48
-48 -59 -10 -11 -28 -31 -41 -46 -12 -14 -31 -29 -42 -34 -32 -13 -315 -15
-316 -1 -5 35 -4 858 1 861 3 2 26 6 50 10 25 4 52 9 60 10 8 2 21 4 28 4 6 1
12 8 12 16 0 13 -33 15 -234 15 -134 0 -237 -4 -241 -9z"/>
<path d="M3625 8521 c-9 -15 14 -23 110 -37 22 -3 43 -9 48 -13 4 -4 6 -200 5
-437 l-3 -429 -77 -14 c-54 -9 -78 -17 -78 -27 0 -12 41 -14 240 -14 199 0
240 2 240 14 0 10 -24 18 -77 27 l-78 14 -3 438 c-2 403 -1 437 15 437 50 0
143 23 143 36 0 12 -41 14 -239 14 -137 0 -242 -4 -246 -9z"/>
<path d="M4662 8518 c3 -7 31 -23 64 -34 l59 -21 0 -423 0 -423 -62 -20 c-37
-12 -63 -25 -63 -33 0 -11 31 -14 155 -14 181 0 201 12 80 51 l-50 16 -1 392
c0 215 1 391 2 391 3 0 74 -88 117 -144 12 -16 34 -43 48 -60 14 -17 83 -105
154 -196 71 -91 132 -166 137 -168 4 -2 8 -8 8 -13 0 -5 8 -17 18 -28 19 -21
27 -31 124 -159 55 -72 76 -92 92 -90 21 3 21 3 21 461 l0 457 63 21 c38 13
62 26 62 35 0 12 -25 14 -150 12 -91 -2 -150 -7 -151 -13 -1 -5 24 -19 54 -30
31 -11 58 -23 62 -26 6 -7 10 -617 4 -624 -4 -3 -69 78 -234 292 -11 14 -33
42 -50 62 -16 21 -57 73 -90 116 -33 44 -67 88 -76 97 -8 10 -33 43 -55 73
l-39 55 -153 0 c-119 0 -153 -3 -150 -12z"/>
<path d="M6235 8520 c-8 -13 27 -26 94 -34 29 -4 57 -8 61 -11 10 -6 9 -865
-1 -871 -5 -3 -25 -7 -46 -9 -63 -8 -104 -19 -106 -30 -1 -6 86 -11 241 -13
202 -2 242 0 242 12 0 9 -16 16 -43 20 -82 12 -102 17 -111 26 -13 13 -14 839
-1 856 6 8 24 16 40 18 83 10 115 19 115 32 0 12 -43 14 -239 14 -150 0 -242
-4 -246 -10z"/>
<path d="M8750 8516 c0 -9 16 -17 43 -21 63 -11 77 -14 95 -19 16 -5 17 -35
17 -328 -1 -206 3 -342 11 -374 35 -161 155 -241 371 -248 188 -6 340 85 393
236 16 47 18 87 19 372 0 249 3 321 13 328 7 4 36 15 65 25 35 11 50 20 46 30
-4 10 -38 13 -154 13 -82 0 -149 -4 -149 -9 0 -13 25 -31 51 -36 13 -3 35 -9
49 -15 l26 -11 -2 -307 c-1 -327 -3 -349 -35 -418 -46 -96 -135 -138 -279
-130 -139 9 -215 61 -245 168 -13 47 -16 110 -16 355 0 164 0 310 1 326 0 18
5 27 17 27 9 0 45 5 79 11 47 8 61 14 57 25 -8 21 -473 21 -473 0z"/>
<path d="M10330 8516 c0 -10 22 -18 69 -26 39 -6 74 -17 79 -23 6 -9 10 -797
3 -853 0 -6 -35 -17 -76 -24 -50 -9 -75 -17 -75 -26 0 -12 74 -14 430 -14 237
0 431 3 431 8 1 4 3 16 4 27 8 55 18 122 21 140 9 44 16 135 11 135 -3 0 -47
-51 -97 -112 -50 -62 -104 -120 -118 -128 -21 -11 -68 -14 -197 -15 l-170 0 0
208 -1 207 31 1 c115 4 156 -14 188 -85 14 -28 27 -63 31 -78 3 -16 12 -28 19
-28 18 0 18 421 0 427 -7 3 -17 -13 -23 -39 -19 -68 -48 -116 -80 -133 -17 -9
-61 -17 -98 -19 l-67 -3 0 208 0 207 135 -2 c151 -2 164 -6 223 -70 81 -87
141 -146 149 -146 10 0 4 50 -26 245 -3 20 -12 20 -399 23 -338 2 -397 0 -397
-12z"/>
<path d="M3518 6802 c-57 -2 -78 -6 -78 -16 0 -8 18 -17 43 -21 57 -10 66 -13
81 -18 10 -4 13 -93 12 -425 -1 -231 -3 -423 -6 -426 -3 -3 -19 -7 -35 -10
-58 -11 -89 -22 -93 -34 -4 -14 -11 -14 286 -12 51 1 96 -1 101 -4 5 -3 14 1
20 8 17 20 -6 29 -97 41 -13 2 -26 6 -30 9 -3 4 -6 90 -6 191 l-1 185 33 -5
c47 -7 142 -8 185 0 60 10 99 30 144 74 55 55 82 126 79 212 -3 105 -58 181
-161 223 -54 23 -276 36 -477 28z m371 -58 c71 -28 110 -101 112 -209 2 -130
-38 -201 -129 -225 -49 -13 -140 -11 -149 3 -3 6 -7 106 -7 223 -1 182 1 214
14 217 42 10 124 5 159 -9z"/>
<path d="M4838 6802 c-60 -5 -45 -26 28 -40 37 -7 70 -15 74 -17 10 -6 11
-855 2 -854 -4 1 -10 0 -14 -1 -15 -5 -23 -6 -75 -14 -67 -10 -74 -36 -10 -36
84 -1 363 -1 384 0 13 0 22 6 20 13 -2 11 -32 21 -107 32 -18 3 -36 7 -38 9
-3 4 -4 159 -3 339 l1 57 38 0 c51 0 97 -14 123 -39 12 -11 61 -98 108 -193
57 -114 95 -179 114 -192 45 -33 277 -41 277 -10 0 8 -9 14 -19 14 -60 0 -145
78 -196 180 -72 144 -140 232 -192 246 -33 9 -28 21 10 28 45 9 126 49 161 80
44 39 73 109 70 164 -8 129 -126 217 -307 228 -99 7 -397 10 -449 6z m475 -66
c75 -37 116 -111 111 -203 -6 -128 -84 -194 -236 -200 l-88 -3 0 37 c-4 288
-1 376 11 383 23 15 162 5 202 -14z"/>
<path d="M7648 6802 c-77 -5 -60 -26 32 -41 61 -10 80 -17 81 -30 3 -82 0
-331 -5 -339 -3 -6 -3 -13 1 -15 5 -3 7 -49 5 -104 -1 -54 -2 -104 -2 -110 0
-7 0 -69 1 -138 1 -70 0 -128 -2 -129 -2 -2 -22 -7 -44 -10 -75 -11 -109 -22
-113 -34 -4 -14 -17 -13 266 -13 112 0 207 2 210 5 10 11 -15 27 -49 32 -19 2
-43 6 -54 8 -11 3 -28 5 -37 5 -16 1 -17 33 -17 430 l0 429 80 12 c54 9 79 17
79 26 0 8 -3 14 -7 14 -47 3 -390 4 -425 2z"/>
<path d="M8803 6800 c-107 -6 -111 -19 -13 -39 36 -7 68 -15 71 -17 4 -2 7
-195 7 -429 0 -388 -1 -425 -16 -426 -10 0 -26 -3 -37 -5 -26 -6 -55 -11 -77
-13 -10 0 -18 -8 -18 -16 0 -12 16 -15 78 -16 173 -1 366 2 371 6 9 10 -15 25
-45 29 -45 6 -98 17 -101 20 -3 2 -5 307 -3 379 0 20 52 24 109 7 49 -14 76
-53 166 -233 49 -100 90 -168 105 -179 35 -24 86 -31 218 -29 48 1 62 4 62 16
0 9 -9 15 -23 15 -13 0 -43 13 -68 29 -45 29 -99 81 -84 81 4 0 1 8 -7 18 -8
9 -34 53 -58 97 -70 131 -102 170 -162 197 -37 17 -35 24 7 32 46 9 143 60
172 92 38 41 56 86 56 140 0 134 -102 217 -293 240 -63 8 -308 10 -417 4z
m453 -81 c63 -45 89 -97 88 -175 -1 -80 -32 -138 -96 -177 -41 -25 -60 -30
-138 -34 l-90 -4 -1 83 c-1 176 2 332 7 339 3 5 45 7 93 5 83 -3 92 -5 137
-37z"/>
<path d="M10248 6802 c-69 -2 -88 -6 -88 -17 0 -9 10 -15 23 -16 12 0 29 -2
37 -4 8 -2 33 -6 55 -10 22 -4 42 -8 43 -10 5 -5 5 -845 0 -850 -1 -2 -20 -6
-40 -9 -21 -3 -55 -9 -75 -12 -45 -7 -50 -11 -36 -25 10 -10 80 -11 396 -9 57
0 77 3 77 13 0 9 -27 18 -79 26 l-80 13 0 428 0 428 80 12 c54 9 79 17 79 26
0 8 -11 14 -27 14 -16 1 -84 2 -153 3 -69 1 -164 1 -212 -1z"/>
<path d="M11208 6802 c-113 -4 -119 -22 -13 -41 l75 -14 1 -41 c2 -153 0 -809
-3 -811 -2 -2 -21 -6 -43 -10 -22 -4 -47 -8 -55 -10 -8 -2 -23 -4 -32 -4 -10
-1 -18 -8 -18 -16 0 -17 -33 -16 494 -16 186 0 340 2 343 4 2 3 6 19 8 36 8
64 16 117 20 141 11 57 14 120 5 120 -5 0 -19 -15 -32 -32 -12 -18 -30 -40
-38 -49 -8 -9 -35 -41 -59 -72 -70 -90 -71 -91 -263 -95 l-168 -4 -1 28 c-4
120 -1 376 5 381 12 12 115 4 149 -12 35 -16 71 -74 81 -129 6 -31 22 -54 32
-44 5 5 8 254 5 396 -1 51 -20 35 -44 -38 -34 -101 -60 -120 -169 -125 -38 -2
-58 1 -59 9 -1 15 -1 345 0 374 1 23 2 23 123 21 67 -1 134 -6 149 -11 16 -5
68 -52 118 -104 49 -52 94 -94 100 -94 12 0 10 28 -13 168 -7 45 -16 85 -19
88 -6 6 -537 11 -679 6z"/>
<path d="M23 6792 c-13 -2 -23 -10 -23 -18 0 -8 3 -13 8 -12 6 1 38 -3 116
-18 10 -2 21 -6 25 -10 8 -7 9 -864 2 -865 -3 0 -15 -2 -26 -5 -35 -8 -90 -16
-108 -17 -10 -1 -16 -8 -15 -17 3 -13 53 -15 413 -15 l410 0 6 45 c16 113 20
138 25 185 4 28 8 53 10 57 3 4 0 9 -5 12 -5 3 -35 -27 -67 -66 -154 -190
-134 -180 -340 -182 -103 -1 -127 2 -133 14 -8 17 -7 847 1 855 2 3 31 10 64
16 87 15 98 19 85 32 -10 10 -388 17 -448 9z"/>
<path d="M1770 6755 c-11 -26 -20 -48 -20 -50 0 -2 -15 -36 -34 -77 -45 -97
-68 -151 -72 -163 -1 -5 -23 -57 -49 -115 -26 -58 -56 -125 -66 -150 -11 -25
-24 -54 -29 -65 -28 -63 -60 -136 -79 -180 -21 -48 -24 -52 -81 -68 -80 -24
-80 -46 0 -48 19 -1 83 -1 143 0 126 1 142 16 47 45 -68 20 -68 16 -25 111 12
28 35 82 52 120 l29 70 186 3 185 2 48 -112 c26 -62 53 -127 61 -145 8 -17 14
-33 14 -36 0 -3 -21 -8 -47 -12 -109 -18 -128 -24 -116 -36 7 -7 99 -10 244
-10 204 0 234 2 237 15 2 10 -4 16 -17 16 -11 0 -30 4 -43 9 -13 5 -35 12 -49
15 -27 6 -28 7 -342 731 l-73 170 -42 3 c-42 3 -43 2 -62 -43z m74 -300 c37
-88 72 -170 78 -182 6 -13 8 -26 5 -29 -4 -4 -53 -6 -109 -5 -57 1 -110 1
-118 1 -85 -2 -96 4 -75 36 8 13 13 24 9 24 -4 0 -1 7 6 15 7 8 9 15 4 15 -5
0 -4 4 1 8 6 4 25 45 44 92 49 121 81 193 85 189 2 -2 33 -76 70 -164z"/>
<path d="M6582 6793 c1 -4 -8 -30 -20 -57 -12 -27 -22 -50 -22 -52 0 -2 -13
-32 -29 -66 -35 -76 -63 -139 -67 -153 -2 -10 -58 -138 -146 -335 -14 -30 -37
-84 -53 -120 -41 -98 -49 -107 -110 -126 -69 -22 -73 -44 -7 -45 121 -1 256 1
260 6 3 2 -1 11 -8 20 -7 9 -15 13 -18 11 -2 -3 -20 1 -38 9 -19 8 -34 11 -34
7 0 -3 -5 -1 -11 5 -8 8 -7 21 5 50 10 21 36 83 60 138 l43 100 185 3 186 2
33 -77 c68 -162 89 -216 86 -219 -3 -4 -49 -12 -107 -20 -48 -6 -68 -18 -52
-28 9 -5 273 -9 445 -7 60 1 47 26 -23 42 -34 7 -65 16 -71 19 -5 4 -47 94
-94 201 -46 107 -133 307 -193 444 l-108 250 -47 3 c-26 2 -46 -1 -45 -5z m48
-303 c59 -141 77 -185 93 -217 6 -13 7 -26 4 -29 -8 -8 -203 -8 -216 0 -5 4
-12 2 -15 -2 -5 -9 -42 -6 -75 4 -11 3 -10 9 3 29 9 14 14 25 10 25 -4 0 -1 7
6 15 7 8 9 15 4 15 -5 0 -4 4 1 8 6 4 25 45 44 92 49 121 81 193 85 189 2 -2
27 -60 56 -129z"/>
<path d="M2398 4642 c-75 -3 -78 -4 -78 -27 l0 -25 3680 0 3680 0 0 25 c0 25
-1 25 -82 25 -460 3 -7142 4 -7200 2z"/>
<path d="M4396 3914 c-9 -24 13 -37 57 -36 35 2 46 -2 49 -15 2 -10 4 -109 3
-220 -1 -180 1 -203 15 -203 14 0 16 25 15 219 l0 219 45 0 c68 0 69 0 63 22
-4 13 -14 20 -32 20 -14 1 -68 2 -118 3 -60 1 -94 -2 -97 -9z"/>
<path d="M5085 3920 c-37 -5 -50 -18 -33 -36 4 -4 48 -6 98 -6 l90 1 -100
-199 c-55 -110 -100 -209 -100 -220 0 -19 6 -20 120 -20 118 0 120 0 120 23 0
21 -3 22 -87 20 -49 -1 -93 0 -100 2 -7 2 27 80 88 199 54 108 99 203 99 211
0 9 -6 18 -13 20 -19 8 -137 11 -182 5z"/>
<path d="M5848 3922 l-88 -3 0 -67 c0 -37 -2 -145 -3 -240 l-2 -172 123 0
c115 0 122 1 122 20 0 12 -7 20 -17 21 -10 0 -54 1 -98 1 -44 1 -82 4 -85 9
-3 4 -5 45 -4 91 l0 83 75 2 c41 1 86 2 102 2 20 1 27 6 27 21 0 18 -8 20
-102 22 l-102 3 1 75 c1 41 2 78 2 83 1 4 38 7 84 6 119 -1 119 -1 115 18 -4
22 -42 29 -150 25z"/>
<path d="M8166 3921 c-4 -5 -6 -99 -7 -208 0 -287 -1 -273 17 -273 12 0 15 10
14 43 -1 23 -1 114 -1 202 l1 160 88 -200 c75 -172 91 -200 111 -203 13 -2 21
1 17 6 -6 10 -6 46 -6 307 0 83 0 153 0 158 0 4 -7 7 -16 7 -12 0 -15 -12 -14
-62 1 -35 1 -124 0 -198 l-1 -135 -26 55 c-28 59 -65 142 -68 150 -17 50 -83
188 -93 194 -6 3 -13 2 -16 -3z"/>
<path d="M8833 3922 l-33 -3 -1 -62 c0 -74 0 -338 1 -384 l0 -33 99 0 c149 0
225 36 273 129 28 57 32 157 6 211 -21 43 -70 94 -111 116 -32 16 -173 32
-234 26z m213 -65 c116 -61 145 -217 56 -310 -44 -47 -79 -60 -169 -62 -69 -2
-83 0 -87 14 -5 20 -5 364 0 372 8 13 170 1 200 -14z"/>
<path d="M2778 3903 c-36 -23 -57 -67 -53 -114 5 -55 26 -79 107 -119 61 -30
75 -42 84 -70 30 -89 -68 -150 -152 -95 -22 14 -28 15 -35 4 -12 -19 32 -56
77 -65 47 -9 104 11 129 44 24 33 28 106 8 149 -11 25 -32 41 -89 68 -78 37
-101 64 -91 107 15 59 61 79 122 54 19 -8 35 -13 35 -11 0 2 3 11 6 19 4 12
-4 20 -30 31 -46 19 -84 19 -118 -2z"/>
<path d="M3280 3916 c0 -2 12 -35 26 -72 14 -38 27 -73 29 -79 1 -5 6 -21 12
-35 6 -14 20 -52 31 -85 11 -33 32 -91 46 -130 14 -38 26 -71 26 -72 0 -2 13
-3 28 -3 26 0 30 5 47 63 10 34 21 67 24 72 3 6 6 12 6 15 2 19 79 241 84 244
4 3 13 -16 20 -42 7 -26 17 -56 21 -67 5 -11 28 -80 52 -152 40 -127 44 -133
69 -133 30 0 27 -8 145 328 l54 153 -26 -3 c-24 -3 -31 -18 -97 -200 -40 -108
-75 -194 -78 -190 -4 4 -34 94 -68 200 -62 190 -63 192 -91 192 -28 0 -29 -2
-90 -192 -34 -106 -65 -196 -69 -200 -4 -5 -13 9 -20 30 -19 55 -110 303 -123
335 -7 19 -18 27 -34 27 -13 0 -24 -2 -24 -4z"/>
<path d="M4160 3913 c-1 -5 -2 -113 -3 -241 l-2 -232 33 0 c18 0 32 5 33 13 1
13 1 421 0 450 -1 12 -9 17 -31 17 -16 0 -30 -3 -30 -7z"/>
<path d="M6240 3908 c-1 -17 -1 -372 0 -425 0 -31 4 -43 15 -43 17 0 17 2 17
123 l0 87 34 0 c28 0 36 -6 51 -32 9 -18 17 -35 18 -38 0 -3 15 -35 34 -72 23
-49 38 -68 52 -68 19 0 19 1 -1 40 -19 37 -41 88 -45 100 0 3 -8 19 -18 36
l-16 31 37 27 c20 14 33 26 28 26 -5 0 -3 7 4 15 20 24 20 105 -1 146 -9 19
-29 40 -44 47 -36 16 -165 16 -165 0z m165 -48 c34 -29 35 -114 1 -148 -8 -9
-37 -15 -72 -16 l-59 -1 -2 80 c-1 44 0 85 2 92 5 15 110 10 130 -7z"/>
<path d="M6960 3833 c-1 -75 -1 -362 0 -385 0 -5 54 -8 120 -8 113 0 120 1
120 20 0 22 1 22 -117 22 l-83 1 -1 46 c0 25 0 124 0 219 1 162 0 172 -18 172
-18 0 -20 -9 -21 -87z"/>
<path d="M7616 3912 c-3 -5 -14 -35 -26 -68 -12 -32 -24 -66 -27 -74 -4 -8 -7
-17 -8 -20 -1 -3 -7 -18 -13 -33 -7 -16 -12 -34 -12 -41 0 -6 -4 -16 -8 -21
-4 -6 -16 -35 -26 -65 -11 -30 -23 -61 -29 -67 -5 -7 -7 -13 -4 -13 3 0 -1
-16 -9 -36 -15 -35 -14 -35 8 -32 17 2 28 18 49 73 l26 70 103 0 103 0 26 -70
c21 -54 32 -71 49 -73 l21 -3 -18 53 c-21 59 -132 357 -150 401 -10 26 -43 38
-55 19z m74 -177 l36 -101 -77 1 c-84 0 -96 5 -84 32 5 10 9 23 10 28 3 9 23
61 57 145 8 18 12 21 16 10 2 -8 21 -60 42 -115z"/>
</g>
</svg>
