<?xml version="1.0" encoding="UTF-8" standalone="no"?>
<svg width="150px" height="64px" viewBox="0 0 150 64" version="1.1" xmlns="http://www.w3.org/2000/svg" xmlns:xlink="http://www.w3.org/1999/xlink">
    <!-- Generator: Sketch 48.2 (47327) - http://www.bohemiancoding.com/sketch -->
    <title>clp-logo</title>
    <desc>Created with Sketch.</desc>
    <defs></defs>
    <g id="5_Q_Sleep" stroke="none" stroke-width="1" fill="none" fill-rule="evenodd" transform="translate(-53.000000, -38.000000)">
        <g id="clp-logo" transform="translate(53.000000, 38.000000)" fill="#4E4F4F" fill-rule="nonzero">
            <path d="M35.350832,61.090274 C34.5666601,60.8466065 34.0335777,60.3481641 34.0335777,59.5425341 C34.0335777,58.5019141 34.7535658,57.9993065 35.491977,58.0000007 C35.9261094,58.001042 36.3644017,58.1683465 36.6538233,58.4918481 L36.3673732,58.8587378 C36.1406498,58.6202768 35.8093304,58.501567 35.4916799,58.5137157 C34.9868265,58.5296825 34.5063391,58.859432 34.5063391,59.5262202 C34.5063391,60.0770753 34.8465729,60.420709 35.508023,60.6445915 L35.8637084,60.7730203 C36.5747821,61.040638 37,61.537692 37,62.4110074 C37,63.4189995 36.2627773,63.9799207 35.4607765,63.9993586 C34.9270998,64.0135899 34.3705428,63.7910958 34,63.3218102 L34.2861529,62.9393008 C34.5925119,63.3370828 35.0370444,63.5047344 35.4503764,63.4832139 C36.0277338,63.4575282 36.5489303,63.0663411 36.5489303,62.4110074 C36.5489303,61.7841363 36.2624802,61.4592463 35.671454,61.2183556 L35.350832,61.090274" id="Fill-1"></path>
            <polyline id="Fill-3" points="50 58 47.8507976 64 47.1979043 64 45.5 58.8635041 43.7982776 64 43.1484388 64 41 58 41.6128033 58 43.4787035 63.1272339 45.1594264 58 45.8401918 58 47.5209146 63.1272339 49.3829968 58 50 58"></polyline>
            <polygon id="Fill-4" points="52 64 52.77 64 52.77 58 52 58"></polygon>
            <polyline id="Fill-5" points="58 58 58 58.5154664 56.6970571 58.5154664 56.6970571 64 56.3052328 64 56.3052328 58.5190287 55 58.5190287 55 58 58 58"></polyline>
            <polyline id="Fill-6" points="65.9803644 58 65.9803644 58.5190287 63.4662126 63.4841774 66 63.4841774 66 64 63 64 63 63.4809713 65.5157439 58.5154664 63.0806651 58.5154664 63.0806651 58 65.9803644 58"></polyline>
            <polyline id="Fill-7" points="74.9723434 58 74.9723434 58.5158226 72.4579699 58.5158226 72.4579699 60.6257793 74.9452815 60.6257793 74.9452815 61.1412456 72.4579699 61.1412456 72.4579699 63.4841774 75 63.4841774 75 64 72 64 72 58 74.9723434 58"></polyline>
            <path d="M79.4856893,60.816995 C80.0360613,60.816995 80.4249453,60.3673155 80.4249453,59.6765962 C80.4249453,58.9830287 80.0092779,58.5369096 79.4880525,58.5369096 L78.4030635,58.5369096 L78.4030635,60.816639 L79.4856893,60.816995 Z M79.4922538,58 C80.2996937,58 80.8311597,58.6675765 80.8311597,59.6765962 C80.8311597,60.5845004 80.3881838,61.2086399 79.7256893,61.3243532 L81,64 L80.5257768,64 L79.2701094,61.3539046 L78.4007002,61.3539046 L78.4007002,64 L78,64 L78,58 L79.4922538,58 Z" id="Fill-8"></path>
            <polyline id="Fill-9" points="87.4795298 58 87.4795298 63.4777652 90 63.4777652 90 64 87 64 87 58 87.4795298 58"></polyline>
            <path d="M95.5015586,58.649053 L94.4099127,61.5819035 L96.5907107,61.5819035 L95.5015586,58.649053 Z M95.7696384,58 L98,64 L97.4906484,64 L96.7839776,62.1304993 L94.2163342,62.1304993 L93.5096633,64 L93,64 L95.230985,58 L95.7696384,58 Z" id="Fill-10"></path>
            <polyline id="Fill-11" points="102.40579 58 104.640439 63.1149234 104.640439 58.0010685 105 58.0010685 105 63.997863 104.594677 63.997863 102.359561 58.8775971 102.359561 64 102 64 102 58 102.40579 58"></polyline>
            <path d="M112.029547,63.4653606 C113.384178,63.4653606 114.467677,62.354764 114.467677,61.0005343 C114.467677,59.6463045 113.38452,58.5364203 112.029547,58.5364203 L110.527867,58.5364203 L110.527867,63.4650045 L112.029547,63.4653606 Z M112.029547,58 C113.663879,58 115,59.347106 115,61.0005343 C115,62.6536064 113.663879,64 112.029547,64 L110,64 L110,58 L112.029547,58 Z" id="Fill-12"></path>
            <g id="Group-16">
                <path d="M21.4564447,9.35495098 L21.277892,9.27843137 L19.0385427,11.985098 C18.5825955,12.1769118 18.0869698,12.2537745 17.4925025,12.2537745 C14.7770126,12.2537745 12.5174698,10.2189706 12.5174698,6.3027451 C12.5174698,2.30965686 14.4599397,0.658480392 16.2043719,0.658480392 C18.1861658,0.658480392 19.5139749,1.61823529 20.8421382,4.19073529 L21.1592111,4.15264706 L21.0004975,0.0442647059 L20.7826206,0.0442647059 L19.9302437,0.696911765 C19.1770628,0.313284314 18.0274523,0.101911765 17.0167161,0.101911765 C13.092098,0.101911765 10.218603,3.07759804 10.218603,6.62872549 C10.218603,10.4107843 12.9932563,12.9064216 16.9770377,12.9064216 C18.7809874,12.9064216 19.8112085,12.5416667 21.0798543,11.8890196 L21.4564447,9.35495098 Z M38.8982864,8.8752451 L38.7197337,8.79838235 L36.995495,10.9484804 C36.4403518,11.6584314 36.1827965,11.9658824 35.0133467,11.9658824 L32.0403015,11.9658824 L32.0403015,1.06166667 L34.0026106,0.716470588 L34.0026106,0.389803922 L28.0763593,0.389803922 L28.0763593,0.716470588 L30.0386683,1.06166667 L30.0386683,11.9463235 L28.0763593,12.2918627 L28.0763593,12.6185294 L38.3828216,12.6185294 L38.8982864,8.8752451 Z M49.363108,11.9463235 L49.363108,1.06166667 L51.3849347,0.716470588 L51.3849347,0.389803922 L45.3396482,0.389803922 L45.3396482,0.716470588 L47.3809598,1.06166667 L47.3809598,11.9463235 L45.3396482,12.2918627 L45.3396482,12.6185294 L51.3849347,12.6185294 L51.3849347,12.2918627 L49.363108,11.9463235 Z M59.867608,11.7740686 L58.3017286,12.2918627 L58.3017286,12.6185294 L62.0874724,12.6185294 L62.0874724,12.2918627 L60.521593,11.7740686 L60.521593,2.02176471 L60.6601131,2.02176471 L67.5379372,10.7755392 L69.0244598,12.7334804 L69.579603,12.7334804 L69.579603,1.23460784 L71.1454824,0.716470588 L71.1454824,0.389803922 L67.3398995,0.389803922 L67.3398995,0.716470588 L68.9057789,1.23460784 L68.9057789,9.08661765 L68.7867437,9.08661765 L63.5148317,2.3477451 L62.0279548,0.389803922 L58.3017286,0.389803922 L58.3017286,0.716470588 L59.867608,1.21539216 L59.867608,11.7740686 Z M81.9674095,11.9463235 L81.9674095,1.06166667 L83.9885276,0.716470588 L83.9885276,0.389803922 L77.9435955,0.389803922 L77.9435955,0.716470588 L79.9852613,1.06166667 L79.9852613,11.9463235 L77.9435955,12.2918627 L77.9435955,12.6185294 L83.9885276,12.6185294 L83.9885276,12.2918627 L81.9674095,11.9463235 Z M103.055766,6.49455882 C103.055766,3.03916667 100.914905,0.101911765 96.9311231,0.101911765 C93.1258945,0.101911765 90.687799,3.03916667 90.687799,6.49455882 C90.687799,9.64284314 92.4520704,12.3498529 95.7418342,12.829902 L96.5743719,14.2117157 C97.2283568,15.2867647 97.5656231,15.7283824 97.9620528,16.0162745 C98.6358769,16.4963235 99.5477714,16.6308333 100.974776,16.6308333 L102.500977,16.6308333 L102.540302,16.3429412 C101.687925,16.1892157 100.914905,15.9201961 100.181917,15.4212745 C99.4680603,14.9607843 98.7148794,14.1159804 97.882696,12.829902 C101.073972,12.3306373 103.055766,9.62362745 103.055766,6.49455882 Z M100.776384,6.49455882 C100.776384,10.5072059 98.9132714,12.4648039 97.090191,12.4648039 C95.1076884,12.4648039 92.9675352,10.9869118 92.9675352,6.49455882 C92.9675352,2.00254902 94.8306482,0.543529412 96.6540829,0.543529412 C98.6358769,0.543529412 100.776384,2.50147059 100.776384,6.49455882 Z M120.576611,1.23460784 L120.576611,8.26068627 C120.576611,10.2958333 119.586068,12.0043137 117.20749,12.0043137 C114.63052,12.0043137 113.342744,11.0442157 113.342744,8.33754902 L113.342744,1.06166667 L115.304698,0.716470588 L115.304698,0.389803922 L109.358254,0.389803922 L109.358254,0.716470588 L111.320563,1.06166667 L111.320563,8.74039216 C111.320563,11.5819118 113.203515,12.9448529 116.354759,12.9448529 C119.14996,12.9448529 121.230595,11.1406373 121.230595,8.68308824 L121.230595,1.23460784 L122.796829,0.716470588 L122.796829,0.389803922 L119.011085,0.389803922 L119.011085,0.716470588 L120.576611,1.23460784 Z M139.029188,0.389803922 L129.099317,0.389803922 L129.099317,0.716470588 L131.061626,1.06166667 L131.061626,11.9463235 L129.099317,12.2918627 L129.099317,12.6185294 L139.881565,12.6185294 L140.416515,8.8752451 L140.218832,8.79838235 L138.494239,10.9484804 C137.939095,11.6584314 137.68154,11.9658824 136.51209,11.9658824 L133.043774,11.9658824 L133.043774,6.72480392 L134.093834,6.72480392 C135.283123,6.72480392 135.73907,7.20485294 136.095822,8.54857843 L136.274374,9.14392157 L136.571608,9.14392157 L136.571608,3.74946078 L136.274374,3.74946078 L136.095822,4.38289216 C135.73907,5.72696078 135.283123,6.18745098 134.093834,6.18745098 L133.043774,6.18745098 L133.043774,1.02357843 L135.600196,1.02357843 C136.829163,1.02357843 137.087073,1.42642157 137.80093,2.17514706 L139.326422,3.80676471 L139.504975,3.67259804 L139.029188,0.389803922 Z" id="Fill-13"></path>
                <path d="M10.8219271,30.5762745 L10.6433744,30.4994118 L8.91913568,32.6498529 C8.36434673,33.3598039 8.10643719,33.6669118 6.93698744,33.6669118 L3.96394221,33.6669118 L3.96394221,22.7630392 L5.92625126,22.4175 L5.92625126,22.0911765 L0,22.0911765 L0,22.4175 L1.96230905,22.7630392 L1.96230905,33.6476961 L0,33.9932353 L0,34.319902 L10.3068166,34.319902 L10.8219271,30.5762745" id="Fill-15"></path>
            </g>
            <path d="M30,34 L30,33.6827709 L28.281327,33.2531273 L23.3816114,22 L22.3848341,22 L17.5063507,33.1787402 L16,33.6827709 L16,34 L19.8392417,34 L19.8392417,33.6827709 L18.3120379,33.2351142 L19.8392417,29.6328459 L24.4849289,29.6328459 L26.0545972,33.346528 L23.9545024,33.6827709 L23.9545024,34 L30,34 Z M24.2092891,29.0174015 L20.0940284,29.0174015 L22.1300474,24.2022572 L22.1725118,24.2022572 L24.2092891,29.0174015 Z" id="Fill-17"></path>
            <path d="M52,25.2964813 C52,23.4505865 50.6798137,22 48.0214286,22 L43,22 L43,22.3198833 L44.7204969,22.6592963 L44.7204969,33.340367 L43,33.67978 L43,34 L48.1779503,34 L48.1779503,33.67978 L46.457764,33.340367 L46.457764,28.6121556 C47.0136646,28.7064369 47.7086957,28.7818621 48.2819876,28.7818621 C50.8015528,28.7818621 52,26.9733431 52,25.2964813 M50.0543478,25.3530501 C50.0543478,27.3124193 49.2201863,28.254223 47.6217391,28.254223 C47.1006211,28.254223 46.7704969,28.2165105 46.457764,28.1599416 L46.457764,22.6027274 C46.8049689,22.5273023 47.2223602,22.4895898 47.6565217,22.4895898 C49.202795,22.4895898 50.0543478,23.5633874 50.0543478,25.3530501" id="Fill-18"></path>
            <path d="M72,34 L72,33.679789 C71.2323908,33.5666545 70.914171,33.3972895 70.3339468,32.9262325 C69.790865,32.4555122 69.3043333,31.399927 68.6862975,30.194506 C68.2747198,29.3466708 67.5629915,28.4806532 66.5708549,28.1601055 L66.5708549,28.0661635 C68.7053706,27.632818 69.940773,26.5024832 69.940773,25.0707932 C69.940773,23.2246135 68.2747198,22 65.4291451,22 L60,22 L60,22.3205477 L61.8534382,22.6596145 L61.8534382,33.3403855 L60,33.679789 L60,34 L65.5787184,34 L65.5787184,33.679789 L63.7252802,33.3403855 L63.7252802,28.3863745 L64.4370085,28.3863745 C65.2792371,28.3863745 65.8032458,28.5742585 66.4212816,29.8369202 L67.4508951,32.0029743 C68.1248118,33.435001 68.3680776,34 69.828342,34 L72,34 Z M65.0172327,27.8587502 L63.7252802,27.8587502 L63.7252802,22.6030472 C64.0997156,22.5276242 64.4928894,22.4899127 65.0172327,22.4899127 C66.5333779,22.4899127 67.8440689,23.3754595 67.8440689,25.165072 C67.8440689,26.9546845 66.5333779,27.8587502 65.0172327,27.8587502 Z" id="Fill-19"></path>
            <path d="M90,34 L90,33.6827709 L88.2817527,33.2531273 L83.3814115,22 L82.3846612,22 L77.5063099,33.1787402 L76,33.6827709 L76,34 L79.8395169,34 L79.8395169,33.6827709 L78.3123544,33.2351142 L79.8395169,29.6328459 L84.4846991,29.6328459 L86.0543249,33.346528 L83.9546661,33.6827709 L83.9546661,34 L90,34 Z M84.2090668,29.0174015 L80.0939176,29.0174015 L82.1306397,24.2022572 L82.1727238,24.2022572 L84.2090668,29.0174015 Z" id="Fill-20"></path>
            <polyline id="Fill-21" points="98.9935533 33.340367 98.9935533 22.6592963 101 22.32022 101 22 95 22 95 22.32022 97.0264901 22.6592963 97.0264901 33.340367 95 33.67978 95 34 101 34 101 33.67978 98.9935533 33.340367"></polyline>
            <path d="M121,34 L121,33.679789 C120.232369,33.5666545 119.914475,33.3972895 119.334235,32.9262325 C118.791138,32.4555122 118.303923,31.399927 117.68654,30.194506 C117.274616,29.3466708 116.563202,28.4806532 115.570704,28.1601055 L115.570704,28.0661635 C117.704944,27.632818 118.940716,26.5024832 118.940716,25.0707932 C118.940716,23.2246135 117.274616,22 114.428962,22 L109,22 L109,22.3205477 L110.853155,22.6596145 L110.853155,33.3403855 L109,33.679789 L109,34 L114.578874,34 L114.578874,33.679789 L112.725384,33.3403855 L112.725384,28.3863745 L113.437132,28.3863745 C114.27905,28.3863745 114.803408,28.5742585 115.421126,29.8369202 L116.450768,32.0029743 C117.125038,33.435001 117.368311,34 118.828281,34 L121,34 Z M114.017373,27.8587502 L112.725384,27.8587502 L112.725384,22.6030472 C113.09983,22.5276242 113.493015,22.4899127 114.017373,22.4899127 C115.533226,22.4899127 116.844288,23.3754595 116.844288,25.165072 C116.844288,26.9546845 115.533226,27.8587502 114.017373,27.8587502 Z" id="Fill-22"></path>
            <polyline id="Fill-23" points="130.993202 33.340367 130.993202 22.6592963 133 22.32022 133 22 127 22 127 22.32022 129.02649 22.6592963 129.02649 33.340367 127 33.67978 127 34 133 34 133 33.67978 130.993202 33.340367"></polyline>
            <path d="M148.651557,22 L139,22 L139,22.32022 L140.906965,22.6592963 L140.906965,33.340367 L139,33.67978 L139,34 L149.479699,34 L150,30.3263932 L149.807857,30.2509681 L148.131257,32.3611875 C147.592018,33.0581963 147.341337,33.3592233 146.205009,33.3592233 L142.833558,33.3592233 L142.833558,28.2165105 L143.854531,28.2165105 C145.010831,28.2165105 145.453655,28.6875807 145.800407,30.0061732 L145.973611,30.5903811 L146.262858,30.5903811 L146.262858,25.2964813 L145.973611,25.2964813 L145.800407,25.9184017 C145.453655,27.2369942 145.010831,27.6888714 143.854531,27.6888714 L142.833558,27.6888714 L142.833558,22.6215837 L145.318328,22.6215837 C146.513195,22.6215837 146.763531,23.0172288 147.456691,23.7522869 L148.940116,25.3530501 L149.113664,25.2213929 L148.651557,22" id="Fill-24"></path>
            <polygon id="Fill-25" points="29 49.6065 121 49.6065 121 49 29 49"></polygon>
        </g>
    </g>
</svg>