<?xml version="1.0" standalone="no"?>
<!DOCTYPE svg PUBLIC "-//W3C//DTD SVG 20010904//EN"
 "http://www.w3.org/TR/2001/REC-SVG-20010904/DTD/svg10.dtd">
<svg version="1.0" xmlns="http://www.w3.org/2000/svg"
 width="558.000000pt" height="558.000000pt" viewBox="0 0 558.000000 558.000000"
 preserveAspectRatio="xMidYMid meet">
<metadata>
Created by potrace 1.11, written by Peter Selinger 2001-2013
</metadata>
<g transform="translate(0.000000,558.000000) scale(0.100000,-0.100000)"
fill="#000000" stroke="none">
<path d="M2126 3943 c-3 -4 -22 -6 -41 -5 -32 1 -35 -1 -35 -27 0 -28 3 -29
63 -40 34 -6 71 -13 82 -15 11 -2 53 -9 93 -16 49 -9 71 -17 68 -25 -2 -7 1
-18 7 -24 8 -8 8 -11 -2 -11 -7 0 -9 -5 -5 -12 9 -14 8 -153 -1 -167 -3 -6 -3
-11 2 -11 4 0 8 -16 8 -35 0 -19 -4 -35 -8 -35 -4 0 -4 -7 1 -17 6 -9 6 -29 2
-45 -5 -15 -6 -28 -2 -28 4 0 7 -16 7 -35 0 -19 -3 -35 -6 -35 -4 0 -4 -15 0
-32 4 -18 4 -44 1 -58 -4 -14 -2 -31 3 -37 6 -9 6 -13 -2 -13 -8 0 -9 -5 -2
-18 7 -13 6 -23 -1 -30 -7 -7 -8 -12 -2 -12 10 0 10 -89 0 -115 -3 -8 -2 -15
2 -15 4 0 7 -16 7 -35 0 -19 -2 -35 -5 -35 -3 0 -6 -9 -6 -20 0 -11 3 -20 6
-20 7 0 3 -141 -4 -148 -3 -3 -1 -11 5 -19 9 -9 8 -13 0 -13 -8 0 -9 -6 -2
-17 11 -23 12 -26 1 -63 -5 -16 -6 -30 -2 -30 4 0 7 -16 7 -35 0 -19 -4 -35
-8 -35 -4 0 -4 -7 1 -17 6 -9 6 -29 2 -45 -5 -15 -6 -28 -2 -28 4 0 7 -16 7
-35 0 -19 -3 -35 -6 -35 -4 0 -4 -15 0 -32 4 -18 4 -44 1 -58 -4 -14 -2 -31 3
-37 6 -9 6 -13 -2 -13 -8 0 -9 -5 -2 -18 7 -13 6 -23 -1 -30 -7 -7 -8 -12 -2
-12 10 0 10 -89 0 -115 -3 -8 -1 -15 3 -15 5 0 7 -9 4 -19 -3 -13 -17 -21 -46
-25 -96 -15 -115 -18 -181 -32 -83 -17 -86 -19 -86 -49 l0 -25 474 1 473 1 -3
25 c-4 35 -1 34 -94 48 -19 3 -75 14 -125 23 l-90 17 0 40 c-1 22 -4 46 -9 53
-4 6 -4 17 0 24 11 17 12 78 2 84 -5 3 -6 10 -2 15 9 16 11 110 2 115 -5 3 -6
9 -3 14 10 16 12 70 3 70 -5 0 -6 5 -3 11 10 15 10 132 1 147 -4 6 -4 17 0 24
10 16 12 78 2 84 -4 3 -4 12 -1 20 3 8 6 32 7 52 1 20 7 36 12 35 149 -28 386
-31 494 -7 41 9 85 19 98 21 12 3 22 10 22 16 0 6 3 7 7 4 3 -4 12 -2 20 4 7
6 13 8 13 4 0 -5 9 0 21 11 12 10 22 17 23 14 2 -8 91 57 127 93 47 46 79 85
79 96 0 5 6 14 13 20 8 6 19 29 26 51 6 22 16 40 22 40 6 0 8 3 6 8 -3 4 1 30
8 57 17 67 16 206 -2 269 -42 145 -135 255 -273 326 -115 59 -296 95 -450 89
-25 -1 -52 -1 -60 0 -8 1 -26 1 -40 0 -22 -1 -64 0 -102 2 -7 0 -80 0 -163 0
-82 0 -157 0 -165 0 -20 1 -145 0 -195 -1 -22 -1 -41 -3 -43 -5 -2 -2 -14 0
-27 5 -13 5 -26 6 -29 3z m899 -104 c53 -13 121 -44 144 -67 8 -7 24 -20 37
-29 13 -8 24 -22 24 -29 0 -8 4 -14 9 -14 13 0 59 -99 76 -162 17 -63 13 -344
-5 -365 -2 -2 -3 -6 -4 -10 -7 -29 -31 -83 -38 -83 -4 0 -8 -6 -8 -12 0 -19
-70 -98 -86 -98 -8 0 -14 -4 -14 -9 0 -10 -82 -47 -126 -56 -16 -4 -49 -8 -74
-10 -25 -2 -47 -4 -50 -5 -18 -6 -181 6 -209 15 -20 6 -21 13 -19 96 2 49 -1
89 -5 89 -5 0 -5 5 -2 11 10 15 10 132 1 147 -4 6 -4 17 0 24 11 17 12 78 2
84 -5 3 -6 10 -2 15 9 16 11 110 2 115 -5 3 -6 9 -3 14 10 16 12 70 3 70 -5 0
-6 5 -3 11 10 15 10 132 1 148 -5 7 -4 17 1 22 6 6 8 27 6 48 -2 25 0 38 9 39
7 1 47 4 88 8 41 4 76 7 77 8 7 6 125 -5 168 -15z"/>
</g>
</svg>
